PathFileType	4	(X/Y/Z)	C:\Users\WrightLab\Desktop\Jo\P2_Trial15.trc
DataRate	CameraRate	NumFrames	NumMarkers	Units	OrigDataRate	OrigDataStartFrame	OrigNumFrames
100.00	100.00	       12	19	mm	100.00	221	       440
Frame#	Time	Headset_Front			Headset_Back			Headset_Left			Headset_Right			Left_Shoulder			Right_Shoulder			Sternum			C7			Left Elbow			Right Elbow			Left Wrist			Right Wrist			Left ASIS			Right ASIS			S2			Left Knee			Right Knee			Left Ankle			Right Ankle			
		X1	Y1	Z1	X2	Y2	Z2	X3	Y3	Z3	X4	Y4	Z4	X5	Y5	Z5	X6	Y6	Z6	X7	Y7	Z7	X8	Y8	Z8	X9	Y9	Z9	X10	Y10	Z10	X11	Y11	Z11	X12	Y12	Z12	X13	Y13	Z13	X14	Y14	Z14	X15	Y15	Z15	X16	Y16	Z16	X17	Y17	Z17	X18	Y18	Z18	X19	Y19	Z19	

221	2.200	49.09101	1436.13733	854.32141	-21.30681	1693.62952	702.37128	106.50730	1576.34851	707.27643	-70.95605	1526.69238	849.07037	69.74631	1455.44202	575.48804	-210.50987	1451.80273	742.78442	-39.84620	1331.62927	710.64471	-137.32498	1450.38733	572.56268	224.31956	1128.89612	506.47125	-345.47324	1134.70630	726.37030	303.58792	907.84583	526.39075	-378.15787	893.21960	776.99005	39.66343	1059.29138	684.48767	-72.52877	1023.49396	746.10034	-119.11477	960.47461	479.00452	178.15465	492.22861	546.54285	4.08563	627.68005	816.33331	202.89662	136.43158	554.80750	-33.67381	301.91049	698.10767	
222	2.210	53.60967	1435.94690	864.47437	-15.55089	1693.64917	712.71710	112.58324	1577.10120	718.09094	-66.05432	1527.12671	859.13287	76.15302	1455.85876	587.30524	-205.54092	1452.12549	751.26642	-35.42738	1331.55933	719.80804	-130.41989	1451.15552	581.50146	234.27074	1130.98096	521.61713	-342.69205	1135.91492	730.56323	315.49057	909.55688	546.13440	-378.65738	893.95044	776.96729	44.77474	1059.07239	693.30719	-67.02229	1022.81635	754.92206	-113.19699	961.53278	487.89349	180.50548	492.09802	547.99805	9.07465	632.44995	832.20001	202.53206	135.88576	554.85449	-10.04115	299.81927	722.75110	
223	2.220	58.40569	1436.02979	875.95941	-9.55294	1694.22998	723.49084	118.26911	1577.10718	729.65906	-61.35790	1527.07654	869.03918	84.15798	1456.36487	598.89417	-200.80705	1452.44983	759.83319	-30.85171	1331.77246	730.16583	-123.94849	1452.14819	590.94391	244.91632	1132.46277	538.43073	-340.20892	1137.39697	734.74402	326.69339	911.53809	564.53613	-378.98309	894.35724	777.22900	49.57375	1059.24036	703.43878	-62.08051	1022.51379	763.84393	-107.42779	961.93005	496.44534	181.87772	491.45047	550.86420	12.38639	638.54773	847.01251	202.33215	135.25458	554.21130	11.73550	294.42343	747.07825	
224	2.230	62.00182	1435.49353	885.71643	-3.05346	1694.07507	733.96985	123.97416	1577.03857	740.35828	-56.93933	1527.25684	879.16687	90.51983	1456.70959	610.59351	-195.70744	1452.45740	768.89343	-25.81479	1331.41577	740.53369	-116.86304	1452.60889	599.98279	254.80589	1133.98633	554.50635	-336.96625	1138.43274	738.91516	336.28967	914.15814	583.83234	-379.03360	894.75195	777.03082	54.21493	1058.91223	713.37372	-58.51470	1022.86115	773.96667	-101.73217	963.09863	505.30698	182.80029	490.53745	552.67725	16.83957	642.47180	861.25415	202.28560	134.08218	553.29382	32.72887	287.80222	771.05286	
225	2.240	66.32664	1435.15405	895.64038	2.14164	1694.79138	744.67761	130.09900	1577.13184	751.20447	-52.52864	1527.36426	888.60693	96.88274	1456.79883	622.18707	-191.15688	1453.19385	778.24353	-20.81975	1331.42371	749.37616	-110.36975	1453.25903	609.14960	264.00491	1135.43945	571.60107	-333.56607	1139.62012	743.56702	347.16470	915.74298	602.35175	-379.23627	895.34546	777.45172	59.35470	1058.48608	722.65094	-53.52707	1022.73724	783.28625	-95.97790	963.13110	514.51111	183.82608	489.32858	553.67493	19.77264	646.54083	873.20483	202.46123	133.19193	553.10010	51.43724	279.66193	793.81396	
226	2.250	71.02649	1434.28430	905.99872	8.40796	1694.49146	754.79938				-48.48984	1527.28967	898.29877	102.81112	1456.67651	632.84741	-186.05176	1452.79028	786.70850	-15.76963	1330.79309	760.72998	-104.02412	1453.24976	618.86389	272.82401	1136.98901	588.64197	-330.13049	1140.67334	748.65570	358.19272	917.24994	622.35168	-379.03931	895.85077	777.83813	64.23075	1058.13489	731.90417	-48.39188	1023.13538	792.56689	-90.11753	963.29907	523.48584	185.74139	489.43427	555.55750	22.23727	649.53308	885.36432	202.41534	132.06293	552.87347	69.64698	271.90198	818.76642	
227	2.260	73.95453	1433.55420	916.36243	14.30225	1694.59631	765.62164				-43.38694	1526.55396	908.09344	108.70862	1457.12744	644.09027	-180.70435	1451.50891	795.26630	-10.39264	1330.68811	770.23486	-97.66488	1453.65125	628.17871	281.54178	1138.37244	605.64948	-326.43369	1141.54150	753.63312	367.16898	918.99548	640.56805	-378.78384	896.50098	778.29266	69.78150	1058.13806	742.68347	-43.22996	1022.90991	802.30280	-85.12914	963.26215	533.44696	187.12990	489.25073	556.30432	25.23315	650.94098	895.59698	202.32323	131.24493	552.02478	87.37740	264.26410	845.31897	
228	2.270	78.31000	1433.28247	926.98798	19.19294	1694.65466	776.03967				-39.38281	1526.29248	917.72156	114.48916	1457.11194	654.68964	-175.57382	1452.93433	805.89844	-4.72432	1331.10046	781.01300	-91.24155	1453.43347	637.27881	289.37057	1139.79688	622.02972	-322.07178	1141.88159	758.64117	375.95767	920.72968	658.76929	-378.23129	896.85132	778.67249	75.75652	1057.91333	752.43121	-37.80994	1023.24969	812.69122	-79.35838	962.58533	542.64819	187.96982	486.97552	558.75525	28.52192	650.78259	907.27472	202.21976	130.79279	551.93494	104.40334	256.89169	870.56396	
229	2.280	83.00865	1432.95544	936.94812	25.18519	1693.86414	785.75946				-35.53585	1526.11865	927.25653	120.03159	1456.79895	665.33698	-170.14627	1451.96277	815.00873	0.37943	1330.44690	790.70404	-85.17852	1453.22693	646.90692	296.83554	1140.88989	639.05817	-318.21805	1142.39771	764.83691	384.45670	922.26270	676.83752	-377.66086	897.20905	779.53064	81.17596	1057.53821	761.38837	-31.59664	1023.17786	822.20874	-74.96819	962.64868	553.11755	189.33406	486.62552	560.13379	31.61362	648.83197	917.64722	202.14972	129.83263	550.66827	121.35752	250.21466	904.32550	
230	2.290	86.07211	1431.83472	946.84583	29.56373	1693.62488	796.40582				-31.10910	1525.16150	937.13269	125.36143	1456.28845	676.03625	-165.33212	1449.94971	824.04016	5.90352	1329.17212	799.99139	-79.60703	1452.75012	656.65259	303.99918	1142.09595	655.69635	-313.90457	1142.58704	770.95123	393.02008	923.78406	696.59741	-377.77151	898.42114	780.74176	87.48743	1057.23486	771.09619	-25.55598	1022.84808	831.73364	-69.56611	962.10553	563.23560	190.31294	485.70630	561.30042	34.38920	644.79395	927.58099	202.38083	128.78775	550.23315	136.76457	238.00429	921.50647	
231	2.300	90.87401	1431.03748	956.82477	35.12455	1692.79175	805.94562				-26.94588	1524.48120	946.35895	131.06656	1455.66479	686.08936	-159.08224	1450.00488	834.06348	11.30799	1329.04370	810.42468	-74.13557	1451.70728	666.18152	310.50632	1142.91162	672.06238	-309.55099	1142.56714	777.90472	400.14331	925.37109	715.99512	-375.44696	897.74164	782.16193	93.10713	1056.54126	781.07257	-18.73079	1022.06836	841.78821	-64.70480	961.08875	573.68787	191.58099	484.76730	564.84296	37.38103	638.60193	935.73138	202.45207	127.80025	549.62958	151.19046	231.71875	949.53998	
232	2.310	94.67322	1430.07410	967.61481	39.48627	1691.81909	815.65094				-23.48584	1524.19165	955.71936	136.28609	1455.36572	695.88226	-154.27470	1448.92346	843.85889	17.52324	1328.49255	820.47369	-68.71500	1450.71484	675.89056	316.83490	1143.53894	688.34088	-305.05127	1142.59204	784.58276	407.73126	927.28180	734.43683	-375.35873	899.32196	783.63440	99.40145	1056.08020	791.71918	-12.98887	1022.35596	852.85394	-60.49916	959.82483	584.42352	193.96147	484.88995	567.21820	39.66134	630.55463	943.55334	203.81441	127.32419	548.31769	166.02594	223.79169	975.32715	
